# File produced by Open Asset Import Library (http://www.assimp.sf.net)
# (assimp v4.1.3154142419)

mtllib robot.mtl

# 66 vertex positions
v  -0.001235553645528853 0.0001242027356056497 0.07999999821186066
v  0.09876422584056854 -8.666524809086695e-05 0.07999999821186066
v  0.09688389301300049 0.0194263756275177 0.07999999821186066
v  0.09876422584056854 -8.666524809086695e-05 0.02999999932944775
v  -0.001235553645528853 0.0001242027356056497 0.02999999932944775
v  0.09688389301300049 0.0194263756275177 0.02999999932944775
v  0.09123288840055466 0.03819764405488968 0.07999999821186066
v  0.09123288840055466 0.03819764405488968 0.02999999932944775
v  0.08202837407588959 0.05550577118992805 0.07999999821186066
v  0.08202837407588959 0.05550577118992805 0.02999999932944775
v  0.06962407380342484 0.07068561762571335 0.07999999821186066
v  0.06962407380342484 0.07068561762571335 0.02999999932944775
v  0.05449667572975159 0.08315382897853851 0.07999999821186066
v  0.05449667572975159 0.08315382897853851 0.02999999932944775
v  0.03722751885652542 0.09243125468492508 0.07999999821186066
v  0.03722751885652542 0.09243125468492508 0.02999999932944775
v  0.01848025061190128 0.09816136956214905 0.07999999821186066
v  0.01848025061190128 0.09816136956214905 0.02999999932944775
v  -0.001024685683660209 0.1001239791512489 0.07999999821186066
v  -0.001024685683660209 0.1001239791512489 0.02999999932944775
v  -0.02053772658109665 0.09824364632368088 0.07999999821186066
v  -0.02053772658109665 0.09824364632368088 0.02999999932944775
v  -0.03930899500846863 0.09259264171123505 0.07999999821186066
v  -0.03930899500846863 0.09259264171123505 0.02999999932944775
v  -0.056617122143507 0.08338812738656998 0.07999999821186066
v  -0.056617122143507 0.08338812738656998 0.02999999932944775
v  -0.0717969685792923 0.07098383456468582 0.07999999821186066
v  -0.0717969685792923 0.07098383456468582 0.02999999932944775
v  -0.08426517993211746 0.05585643276572227 0.07999999821186066
v  -0.08426517993211746 0.05585643276572227 0.02999999932944775
v  -0.09354260563850403 0.03858727589249611 0.07999999821186066
v  -0.09354260563850403 0.03858727589249611 0.02999999932944775
v  -0.099272720515728 0.01984000764787197 0.07999999821186066
v  -0.099272720515728 0.01984000764787197 0.02999999932944775
v  -0.1012353301048279 0.0003350707120262086 0.07999999821186066
v  -0.1012353301048279 0.0003350707120262086 0.02999999932944775
v  -0.09935499727725983 -0.01917796954512596 0.07999999821186066
v  -0.09935499727725983 -0.01917796954512596 0.02999999932944775
v  -0.093703992664814 -0.03794923797249794 0.07999999821186066
v  -0.093703992664814 -0.03794923797249794 0.02999999932944775
v  -0.08449947834014893 -0.05525736883282661 0.07999999821186066
v  -0.08449947834014893 -0.05525736883282661 0.02999999932944775
v  -0.07209518551826477 -0.07043721526861191 0.07999999821186066
v  -0.07209518551826477 -0.07043721526861191 0.02999999932944775
v  -0.05696778371930122 -0.08290541917085648 0.07999999821186066
v  -0.05696778371930122 -0.08290541917085648 0.02999999932944775
v  -0.03969862684607506 -0.09218284487724304 0.07999999821186066
v  -0.03969862684607506 -0.09218284487724304 0.02999999932944775
v  -0.02095135860145092 -0.09791296720504761 0.07999999821186066
v  -0.02095135860145092 -0.09791296720504761 0.02999999932944775
v  -0.001446421723812819 -0.09987557679414749 0.07999999821186066
v  -0.001446421723812819 -0.09987557679414749 0.02999999932944775
v  0.01806661859154701 -0.09799524396657944 0.07999999821186066
v  0.01806661859154701 -0.09799524396657944 0.02999999932944775
v  0.03683788701891899 -0.09234423935413361 0.07999999821186066
v  0.03683788701891899 -0.09234423935413361 0.02999999932944775
v  0.05414601787924767 -0.08313972502946854 0.07999999821186066
v  0.05414601787924767 -0.08313972502946854 0.02999999932944775
v  0.06932586431503296 -0.07073542475700378 0.07999999821186066
v  0.06932586431503296 -0.07073542475700378 0.02999999932944775
v  0.08179406821727753 -0.05560802668333054 0.07999999821186066
v  0.08179406821727753 -0.05560802668333054 0.02999999932944775
v  0.09107149392366409 -0.03833886981010437 0.07999999821186066
v  0.09107149392366409 -0.03833886981010437 0.02999999932944775
v  0.09680161625146866 -0.01959160156548023 0.07999999821186066
v  0.09680161625146866 -0.01959160156548023 0.02999999932944775

# 0 UV coordinates

# 66 vertex normals
vn -2.664194243635811e-14 3.247738195592169e-15 1
vn 2.664194243635811e-14 -3.247738195592169e-15 -1
vn 0.9951136112213135 -0.03477083146572113 2.662482898269179e-14
vn 0.9952514171600342 0.03057377971708775 2.64160353611936e-14
vn 0.9827762246131897 0.1600343137979507 2.566340931810848e-14
vn 0.9701632857322693 0.2241502404212952 2.511914152158665e-14
vn 0.9326713681221008 0.3486894369125366 2.37159992572079e-14
vn 0.907792329788208 0.4091127216815948 2.28569062548506e-14
vn 0.8467243909835815 0.523944616317749 2.085688020133248e-14
vn 0.8105354309082031 0.578353226184845 1.971616568467206e-14
vn 0.7282382845878601 0.679064929485321 1.719650185867238e-14
vn 0.6821300983428955 0.7253679633140564 1.581755424339901e-14
vn 0.5817663669586182 0.8080891370773315 1.287502107694388e-14
vn 0.5275108814239502 0.8445071578025818 1.131122122642646e-14
vn 0.4129375815391541 0.9060589075088501 8.058737528747299e-15
vn 0.3526197373867035 0.9311925172805786 6.370055375651447e-15
vn 0.2282397598028183 0.9692093729972839 2.93299811656789e-15
vn 0.1641776114702225 0.982092559337616 1.184406593662162e-15
vn 0.03477083146572113 0.9951136112213135 -2.305476722209857e-15
vn -0.03057377971708775 0.9952514171600342 -4.04655167474165e-15
vn -0.1600343137979507 0.9827762246131897 -7.455416289208795e-15
vn -0.2241502404212952 0.9701632857322693 -9.122555853357129e-15
vn -0.3486894369125366 0.9326713681221008 -1.231877115235019e-14
vn -0.4091127216815948 0.907792329788208 -1.384763004676041e-14
vn -0.523944616317749 0.8467243909835815 -1.670884974434503e-14
vn -0.578353226184845 0.8105354309082031 -1.804077517258453e-14
vn -0.679064929485321 0.7282382845878601 -2.045673167265418e-14
vn -0.7253679633140564 0.6821300983428955 -2.154054420998395e-14
vn -0.8080891370773315 0.5817663669586182 -2.341819433141455e-14
vn -0.8445071578025818 0.5275108814239502 -2.421246559638438e-14
vn -0.9060589075088501 0.4129375815391541 -2.548016729249716e-14
vn -0.9311925172805786 0.3526197373867035 -2.595402971044321e-14
vn -0.9692093729972839 0.2282397598028183 -2.656291765051107e-14
vn -0.982092559337616 0.1641776114702225 -2.669794486669878e-14
vn -0.9951136112213135 0.03477083146572113 -2.662461214225729e-14
vn -0.9952514171600342 -0.03057377971708775 -2.64158185207591e-14
vn -0.9827762246131897 -0.1600343137979507 -2.566319247767398e-14
vn -0.9701632857322693 -0.2241502404212952 -2.511914152158665e-14
vn -0.9326713681221008 -0.3486894369125366 -2.371578241677341e-14
vn -0.907792329788208 -0.4091127216815948 -2.28566894144161e-14
vn -0.8467243909835815 -0.523944616317749 -2.085666336089798e-14
vn -0.8105354309082031 -0.578353226184845 -1.971594884423757e-14
vn -0.7282382845878601 -0.679064929485321 -1.719628501823788e-14
vn -0.6821300983428955 -0.7253679633140564 -1.581733740296451e-14
vn -0.5817663669586182 -0.8080891370773315 -1.287480423650938e-14
vn -0.5275108814239502 -0.8445071578025818 -1.131122122642646e-14
vn -0.4129375815391541 -0.9060589075088501 -8.058737528747299e-15
vn -0.3526197373867035 -0.9311925172805786 -6.370055375651447e-15
vn -0.2282397598028183 -0.9692093729972839 -2.932781276133393e-15
vn -0.1641776114702225 -0.982092559337616 -1.184189753227665e-15
vn -0.03477083146572113 -0.9951136112213135 2.305693562644354e-15
vn 0.03057377971708775 -0.9952514171600342 4.046768515176147e-15
vn 0.1600343137979507 -0.9827762246131897 7.455633129643292e-15
vn 0.2241502404212952 -0.9701632857322693 9.122555853357129e-15
vn 0.3486894369125366 -0.9326713681221008 1.231898799278468e-14
vn 0.4091127216815948 -0.907792329788208 1.384784688719491e-14
vn 0.523944616317749 -0.8467243909835815 1.670906658477952e-14
vn 0.578353226184845 -0.8105354309082031 1.804077517258453e-14
vn 0.679064929485321 -0.7282382845878601 2.045694851308868e-14
vn 0.7253679633140564 -0.6821300983428955 2.154076105041845e-14
vn 0.8080891370773315 -0.5817663669586182 2.341841117184905e-14
vn 0.8445071578025818 -0.5275108814239502 2.421268243681888e-14
vn 0.9060589075088501 -0.4129375815391541 2.548038413293166e-14
vn 0.9311925172805786 -0.3526197373867035 2.595402971044321e-14
vn 0.9692093729972839 -0.2282397598028183 2.656291765051107e-14
vn 0.982092559337616 -0.1641776114702225 2.669816170713327e-14

# Mesh '' with 128 faces
usemtl $Material_0
f  1//1 2//1 3//1
f  4//2 5//2 6//2
f  2//3 4//4 3//5
f  4//4 6//6 3//5
f  1//1 3//1 7//1
f  6//2 5//2 8//2
f  3//5 6//6 7//7
f  6//6 8//8 7//7
f  1//1 7//1 9//1
f  8//2 5//2 10//2
f  7//7 8//8 9//9
f  8//8 10//10 9//9
f  1//1 9//1 11//1
f  10//2 5//2 12//2
f  9//9 10//10 11//11
f  10//10 12//12 11//11
f  1//1 11//1 13//1
f  12//2 5//2 14//2
f  11//11 12//12 13//13
f  12//12 14//14 13//13
f  1//1 13//1 15//1
f  14//2 5//2 16//2
f  13//13 14//14 15//15
f  14//14 16//16 15//15
f  1//1 15//1 17//1
f  16//2 5//2 18//2
f  15//15 16//16 17//17
f  16//16 18//18 17//17
f  1//1 17//1 19//1
f  18//2 5//2 20//2
f  17//17 18//18 19//19
f  18//18 20//20 19//19
f  1//1 19//1 21//1
f  20//2 5//2 22//2
f  19//19 20//20 21//21
f  20//20 22//22 21//21
f  1//1 21//1 23//1
f  22//2 5//2 24//2
f  21//21 22//22 23//23
f  22//22 24//24 23//23
f  1//1 23//1 25//1
f  24//2 5//2 26//2
f  23//23 24//24 25//25
f  24//24 26//26 25//25
f  1//1 25//1 27//1
f  26//2 5//2 28//2
f  25//25 26//26 27//27
f  26//26 28//28 27//27
f  1//1 27//1 29//1
f  28//2 5//2 30//2
f  27//27 28//28 29//29
f  28//28 30//30 29//29
f  1//1 29//1 31//1
f  30//2 5//2 32//2
f  29//29 30//30 31//31
f  30//30 32//32 31//31
f  1//1 31//1 33//1
f  32//2 5//2 34//2
f  31//31 32//32 33//33
f  32//32 34//34 33//33
f  1//1 33//1 35//1
f  34//2 5//2 36//2
f  33//33 34//34 35//35
f  34//34 36//36 35//35
f  1//1 35//1 37//1
f  36//2 5//2 38//2
f  35//35 36//36 37//37
f  36//36 38//38 37//37
f  1//1 37//1 39//1
f  38//2 5//2 40//2
f  37//37 38//38 39//39
f  38//38 40//40 39//39
f  1//1 39//1 41//1
f  40//2 5//2 42//2
f  39//39 40//40 41//41
f  40//40 42//42 41//41
f  1//1 41//1 43//1
f  42//2 5//2 44//2
f  41//41 42//42 43//43
f  42//42 44//44 43//43
f  1//1 43//1 45//1
f  44//2 5//2 46//2
f  43//43 44//44 45//45
f  44//44 46//46 45//45
f  1//1 45//1 47//1
f  46//2 5//2 48//2
f  45//45 46//46 47//47
f  46//46 48//48 47//47
f  1//1 47//1 49//1
f  48//2 5//2 50//2
f  47//47 48//48 49//49
f  48//48 50//50 49//49
f  1//1 49//1 51//1
f  50//2 5//2 52//2
f  49//49 50//50 51//51
f  50//50 52//52 51//51
f  1//1 51//1 53//1
f  52//2 5//2 54//2
f  51//51 52//52 53//53
f  52//52 54//54 53//53
f  1//1 53//1 55//1
f  54//2 5//2 56//2
f  53//53 54//54 55//55
f  54//54 56//56 55//55
f  1//1 55//1 57//1
f  56//2 5//2 58//2
f  55//55 56//56 57//57
f  56//56 58//58 57//57
f  1//1 57//1 59//1
f  58//2 5//2 60//2
f  57//57 58//58 59//59
f  58//58 60//60 59//59
f  1//1 59//1 61//1
f  60//2 5//2 62//2
f  59//59 60//60 61//61
f  60//60 62//62 61//61
f  1//1 61//1 63//1
f  62//2 5//2 64//2
f  61//61 62//62 63//63
f  62//62 64//64 63//63
f  1//1 63//1 65//1
f  64//2 5//2 66//2
f  63//63 64//64 65//65
f  64//64 66//66 65//65
f  1//1 65//1 2//1
f  66//2 5//2 4//2
f  65//65 66//66 2//3
f  66//66 4//4 2//3

